:SAMPLES-PER-SECOND 30
:FULLY-SPECIFIED
:DEGREES
323
root  41.3628 37.4465 1.45782 -118.687 -83.9662 136.327
RightUpLeg  -49.852 -13.7883 6.56905
RightLeg  14.0734 -6.51995 1.70415
RightFoot  0.0372596 -0.80262 8.12359
RightToes  5.82063e-011 0 -3.6325e-017
Spine  68.0583 -10.134 7.22994
Spine1  9.5258 0.90405 -19.7764
HEad  -56.6815 -3.011 8.28366
LeftShoulder1  -0.871573 -16.1639 14.669
LeftArm  -97.0388 -70.443 15.3053
LeftForeArm  -18.5003 -19.0026 -1.9943
LeftHand  -0.244104 0.0205437 5.32207
RightShoulder  1.96431 11.305 5.50938
RightArm  -76.8181 66.4623 -12.2029
RightForeArm  -64.9419 30.2779 8.83804
RightHand  -2.111 10.9658 -15.2598
LeftUpLeg  -35.4512 9.65632 -15.5559
LeftLeg  35.675 10.3649 8.26597
LeftFoot  -19.3855 0.423154 4.34328
LeftToes  1.45487e-011 -6.19069e-011 1.65092e-011
324
root  40.0948 37.323 1.27222 -118.474 -83.9142 135.728
RightUpLeg  -50.0777 -16.2888 10.2063
RightLeg  17.71 -3.66653 0.306951
RightFoot  1.80266 -0.288939 2.63579
RightToes  5.82063e-011 0 -3.6325e-017
Spine  67.8427 -10.2597 7.72664
Spine1  9.89159 1.00966 -20.027
HEad  -57.0473 -2.8201 8.22896
LeftShoulder1  -0.811619 -15.637 14.451
LeftArm  -94.9246 -71.1867 13.4224
LeftForeArm  -20.0701 -18.8492 -1.96616
LeftHand  -0.244104 0.0205437 5.32207
RightShoulder  2.07409 11.5534 6.08549
RightArm  -75.0177 66.5024 -10.5803
RightForeArm  -64.6554 31.1146 9.06386
RightHand  -2.35552 11.6603 -16.2972
LeftUpLeg  -33.6891 9.73516 -14.9063
LeftLeg  37.6253 10.3382 8.81078
LeftFoot  -21.2212 0.411382 3.33745
LeftToes  1.45487e-011 -6.19069e-011 1.65092e-011
325
root  38.7831 37.2704 1.12948 -127.945 -84.1526 145.103
RightUpLeg  -50.9479 -17.8383 13.7096
RightLeg  21.9623 -0.874685 -0.760901
RightFoot  2.51607 0.301531 -2.39262
RightToes  5.82063e-011 0 -3.6325e-017
Spine  68.0523 -10.3235 8.4509
Spine1  9.87524 1.51503 -20.3419
HEad  -57.7922 -2.75846 7.70423
LeftShoulder1  -0.701442 -15.5266 13.8216
LeftArm  -94.2311 -70.9714 12.4601
LeftForeArm  -20.564 -19.2293 -2.40317
LeftHand  -0.244104 0.0205437 5.32207
RightShoulder  2.06396 11.5139 6.04916
RightArm  -74.5878 66.8154 -10.3343
RightForeArm  -64.4781 31.8889 9.27753
RightHand  -2.54234 12.0945 -17.1277
LeftUpLeg  -33.1236 10.4135 -13.3056
LeftLeg  41.0486 9.42499 9.06417
LeftFoot  -21.6136 0.130804 -0.0455485
LeftToes  1.45487e-011 -6.19069e-011 1.65092e-011
326
root  37.5038 37.2971 0.961588 -136.935 -84.67 154.13
RightUpLeg  -50.906 -16.8513 13.6423
RightLeg  26.0569 -1.86486 -1.22982
RightFoot  0.983085 0.516837 -4.71488
RightToes  5.82063e-011 0 -3.6325e-017
Spine  68.1778 -10.4054 9.10143
Spine1  9.91086 1.80434 -20.2253
HEad  -58.1865 -2.73402 7.68761
LeftShoulder1  -0.645734 -15.636 13.4686
LeftArm  -95.3847 -70.1689 12.7791
LeftForeArm  -20.4682 -19.7121 -2.83289
LeftHand  -0.244104 0.0205437 5.32207
RightShoulder  1.93666 11.1176 5.48563
RightArm  -76.1574 67.5278 -11.4303
RightForeArm  -64.0639 32.1762 9.35542
RightHand  -2.46076 11.7793 -16.8815
LeftUpLeg  -34.3312 11.305 -11.4365
LeftLeg  46.611 7.81147 9.17836
LeftFoot  -18.3689 -0.137605 -4.31797
LeftToes  1.45487e-011 -6.19069e-011 1.65092e-011
327
root  36.2937 37.3072 0.713256 -137.902 -85.5833 155.014
RightUpLeg  -50.4476 -16.6025 13.2455
RightLeg  29.7397 -2.70887 -1.91709
RightFoot  -1.87191 0.427323 -5.29682
RightToes  5.82063e-011 0 -3.6325e-017
Spine  67.7241 -10.5794 9.59054
Spine1  10.3435 1.62904 -19.927
HEad  -57.8861 -2.62552 8.89999
LeftShoulder1  -0.806349 -15.233 14.5175
LeftArm  -97.6837 -69.8586 13.5129
LeftForeArm  -20.3734 -19.8369 -2.82
LeftHand  -0.244104 0.0205437 5.32207
RightShoulder  1.81651 10.4414 5.24664
RightArm  -78.9323 68.4069 -13.3419
RightForeArm  -63.4423 31.8069 9.24683
RightHand  -2.25628 11.2501 -16.0104
LeftUpLeg  -37.4358 11.4617 -9.70608
LeftLeg  54.285 5.92284 9.25527
LeftFoot  -9.97287 0.101674 -5.80884
LeftToes  1.45487e-011 -6.19069e-011 1.65092e-011
328
root  35.1297 37.1771 0.438822 -142.159 -86.4606 158.974
RightUpLeg  -49.802 -16.8749 13.3542
RightLeg  33.4992 -3.10167 -2.46138
RightFoot  -4.90895 0.269633 -5.37537
RightToes  5.82063e-011 0 -3.6325e-017
Spine  67.4543 -10.4468 10.4045
Spine1  9.45771 1.50829 -19.4771
HEad  -56.3329 -3.12748 10.0658
LeftShoulder1  -0.90626 -16.3854 14.824
LeftArm  -95.6063 -69.5209 12.7961
LeftForeArm  -21.315 -19.4253 -2.44212
LeftHand  -0.244104 0.0205437 5.32207
RightShoulder  1.9656 10.7428 6.10449
RightArm  -78.0815 67.9959 -13.4757
RightForeArm  -63.5934 30.9951 9.02275
RightHand  -2.27036 11.433 -15.931
LeftUpLeg  -41.6044 10.6785 -7.49402
LeftLeg  62.4585 3.66623 8.1734
LeftFoot  0.635571 0.303102 -3.09884
LeftToes  1.45487e-011 -6.19069e-011 1.65092e-011
329
root  33.9585 36.9566 0.217451 -160.724 -86.7044 177.122
RightUpLeg  -49.1984 -17.3615 14.2134
RightLeg  37.4408 -2.61188 -2.42065
RightFoot  -7.95744 0.0903955 -4.79501
RightToes  5.82063e-011 0 -3.6325e-017
Spine  67.7116 -9.93297 11.2891
Spine1  8.07598 1.84016 -18.9993
HEad  -54.9564 -3.99684 10.0102
LeftShoulder1  -0.862232 -18.0751 14.1632
LeftArm  -91.3897 -69.1364 12.2328
LeftForeArm  -22.8187 -18.7204 -1.95826
LeftHand  -0.244104 0.0205437 5.32207
RightShoulder  2.1412 11.3252 6.83568
RightArm  -75.6235 67.1638 -12.4224
RightForeArm  -64.6415 30.0111 8.76408
RightHand  -2.52105 12.156 -16.928
LeftUpLeg  -45.5374 9.26822 -4.61226
LeftLeg  69.1924 1.75693 5.99696
LeftFoot  6.55674 -0.177918 0.996639
LeftToes  1.45487e-011 -6.19069e-011 1.65092e-011
330
root  32.7411 36.8858 0.0302546 -173.039 -86.6045 -171.047
RightUpLeg  -47.8427 -18.0211 14.3514
RightLeg  40.2599 -1.98614 -2.10441
RightFoot  -10.819 -0.0569972 -3.4653
RightToes  5.82063e-011 0 -3.6325e-017
Spine  68.0372 -9.5814 11.2035
Spine1  7.78712 2.06941 -18.9561
HEad  -55.0417 -4.23184 9.44614
LeftShoulder1  -0.849965 -17.7993 14.1627
LeftArm  -90.2826 -69.2981 13.7734
LeftForeArm  -23.8226 -18.0274 -1.47018
LeftHand  -0.244104 0.0205437 5.32207
RightShoulder  2.07316 11.2878 6.35626
RightArm  -75.7849 67.2173 -12.124
RightForeArm  -65.6678 29.0016 8.50394
RightHand  -2.65213 12.4093 -17.5339
LeftUpLeg  -48.6951 7.29701 -2.11765
LeftLeg  72.9631 1.18916 5.47643
LeftFoot  5.53561 -0.615082 3.96493
LeftToes  1.45487e-011 -6.19069e-011 1.65092e-011
331
root  31.5025 36.9711 -0.187744 -170.358 -87.051 -174.222
RightUpLeg  -45.6168 -18.5119 13.3632
RightLeg  41.6787 -2.1757 -2.38233
RightFoot  -13.294 -0.1357 -2.56592
RightToes  5.82063e-011 0 -3.6325e-017
Spine  68.4461 -9.25034 10.2973
Spine1  7.97087 2.04516 -18.907
HEad  -55.6564 -4.32249 9.29413
LeftShoulder1  -0.930812 -17.3266 14.7098
LeftArm  -90.8971 -69.3565 15.9885
LeftForeArm  -24.0252 -17.4686 -1.01485
LeftHand  -0.244104 0.0205437 5.32207
RightShoulder  2.065 11.2727 6.30985
RightArm  -76.607 67.1951 -13.2177
RightForeArm  -66.7086 28.0781 8.27158
RightHand  -2.47881 11.9468 -16.843
LeftUpLeg  -51.3409 5.33274 -0.629588
LeftLeg  72.7172 1.70773 7.15809
LeftFoot  1.54507 -0.575995 4.96842
LeftToes  1.45487e-011 -6.19069e-011 1.65092e-011
332
root  30.263 37.0714 -0.422329 -166.569 -87.6689 -178.45
RightUpLeg  -43.0186 -18.3723 12.3329
RightLeg  42.4024 -3.18421 -3.42024
RightFoot  -15.4838 -0.196026 -2.51483
RightToes  5.82063e-011 0 -3.6325e-017
Spine  68.7773 -8.89514 9.45748
Spine1  8.35144 2.02706 -18.9105
HEad  -56.1695 -4.38178 9.39326
LeftShoulder1  -1.08725 -16.9096 15.6872
LeftArm  -92.1684 -69.3401 18.3823
LeftForeArm  -23.928 -17.0083 -0.603057
LeftHand  -0.244104 0.0205437 5.32207
RightShoulder  2.12956 11.4622 6.59611
RightArm  -77.58 66.8239 -14.6595
RightForeArm  -67.3996 27.1508 8.0409
RightHand  -2.23814 11.4486 -15.7069
LeftUpLeg  -53.3413 4.756 -0.0576887
LeftLeg  68.2219 2.76933 8.41841
LeftFoot  -1.30283 -0.385262 4.47628
LeftToes  1.45487e-011 -6.19069e-011 1.65092e-011
333
root  29.0189 37.176 -0.636353 -167.552 -88.2577 -177.591
RightUpLeg  -40.5821 -17.8804 11.6641
RightLeg  42.7379 -4.34492 -4.59622
RightFoot  -17.4858 -0.224172 -2.00429
RightToes  5.82063e-011 0 -3.6325e-017
Spine  68.918 -8.54693 8.83401
Spine1  8.65491 2.13393 -18.9706
HEad  -56.4173 -4.43393 9.02236
LeftShoulder1  -1.19914 -16.5018 16.4473
LeftArm  -93.0313 -69.3534 20.9981
LeftForeArm  -24.4219 -16.4317 -0.205955
LeftHand  -0.244104 0.0205437 5.32207
RightShoulder  2.13221 11.6723 6.39383
RightArm  -78.7205 66.4402 -14.9704
RightForeArm  -67.451 26.2218 7.81093
RightHand  -2.14631 11.3661 -15.1563
LeftUpLeg  -54.5962 6.32764 -1.1093
LeftLeg  59.844 3.96962 7.92565
LeftFoot  -2.29489 -0.295237 3.914
LeftToes  1.45487e-011 -6.19069e-011 1.65092e-011
334
root  27.7706 37.3568 -0.818009 -140.076 -89.049 155.429
RightUpLeg  -38.6665 -17.7319 10.8937
RightLeg  42.5401 -5.35911 -5.54787
RightFoot  -18.8274 -0.166147 -0.581074
RightToes  5.82063e-011 0 -3.6325e-017
Spine  68.8046 -8.36541 8.0603
Spine1  8.76525 2.06904 -18.9934
HEad  -56.5683 -4.43201 8.40534
LeftShoulder1  -1.22705 -15.9518 16.8069
LeftArm  -93.8023 -69.6267 24.0516
LeftForeArm  -25.7747 -15.6153 0.235653
LeftHand  -0.244104 0.0205437 5.32207
RightShoulder  2.06127 11.7141 5.82436
RightArm  -79.9352 66.2409 -14.344
RightForeArm  -66.895 25.6194 7.66107
RightHand  -2.11013 11.3758 -14.9009
LeftUpLeg  -55.3219 9.55731 -4.92212
LeftLeg  48.0107 4.81504 6.15216
LeftFoot  -2.64475 -0.190861 2.69325
LeftToes  1.45487e-011 -6.19069e-011 1.65092e-011
